<?xml version="1.0" standalone="no"?>
<!DOCTYPE svg PUBLIC "-//W3C//DTD SVG 20010904//EN"
 "http://www.w3.org/TR/2001/REC-SVG-20010904/DTD/svg10.dtd">
<svg version="1.0" xmlns="http://www.w3.org/2000/svg"
 width="1024.000000pt" height="1024.000000pt" viewBox="0 0 1024.000000 1024.000000"
 preserveAspectRatio="xMidYMid meet">
<metadata>
Created by potrace 1.16, written by Peter Selinger 2001-2019
</metadata>
<g transform="translate(0.000000,1024.000000) scale(0.100000,-0.100000)"
fill="#000000" stroke="none">
<path d="M0 5120 l0 -5120 5120 0 5120 0 0 5120 0 5120 -5120 0 -5120 0 0
-5120z m7365 2339 c75 -7 104 -15 171 -49 92 -45 172 -122 213 -204 30 -62 23
-69 -9 -8 -48 93 -177 190 -293 222 -55 15 -141 19 -653 26 -576 9 -582 9
-284 14 526 9 762 8 855 -1z m-1950 -27 c311 -57 547 -144 805 -295 153 -90
376 -270 475 -383 80 -91 65 -86 -36 13 -78 76 -180 165 -259 226 -85 66 -258
168 -392 231 -722 341 -1513 291 -2190 -137 -54 -34 -63 -45 -19 -22 17 8 38
12 48 9 14 -5 15 -4 4 4 -11 8 -10 12 7 21 17 9 23 8 30 -6 9 -15 12 -15 28
-3 12 11 15 11 10 2 -4 -7 -19 -17 -32 -22 -13 -5 -24 -14 -24 -19 0 -15 33
-22 42 -9 5 9 8 10 8 1 0 -7 -8 -17 -17 -23 -16 -10 -15 -11 5 -7 27 6 28 -1
5 -20 -17 -14 -17 -14 0 -9 32 10 8 -13 -69 -65 -259 -174 -496 -435 -652
-715 -181 -326 -267 -669 -266 -1059 2 -485 144 -921 424 -1298 112 -151 222
-264 435 -446 24 -20 29 -27 13 -17 -35 21 -41 20 -29 -3 9 -16 8 -18 -8 -14
-11 3 -31 -8 -55 -30 l-37 -35 33 -31 c18 -17 30 -31 27 -31 -15 0 -189 136
-273 214 -252 231 -489 595 -591 909 -20 62 -43 126 -51 144 -8 17 -14 38 -14
46 0 20 -50 221 -57 227 -3 3 -3 -8 1 -25 5 -22 4 -26 -4 -15 -5 8 -10 27 -10
43 0 15 -4 27 -8 27 -13 0 -13 -62 0 -77 7 -9 7 -13 0 -13 -15 0 -22 26 -23
83 0 29 -3 45 -7 36 -6 -13 -11 -13 -32 -2 -14 7 -19 13 -12 13 6 0 12 9 12
20 0 12 -7 20 -16 20 -10 0 -14 -6 -10 -15 4 -11 -1 -15 -19 -15 -14 0 -25 5
-25 10 0 6 -7 10 -15 10 -8 0 -15 -4 -15 -10 0 -5 -7 -10 -15 -10 -8 0 -15 -9
-15 -21 0 -11 -5 -17 -10 -14 -6 4 -8 11 -4 16 3 5 2 15 -4 22 -5 7 -10 55
-11 107 -4 159 -11 114 -12 -81 -1 -101 -4 -209 -8 -239 -21 -160 -26 54 -26
1135 l0 1150 27 58 c33 70 121 165 186 200 91 49 139 57 387 59 364 4 825 -1
825 -10 0 -11 4 -11 -430 -17 -405 -6 -482 -10 -445 -25 11 -5 15 -9 8 -9 -7
-1 -10 -7 -7 -15 3 -8 -3 -23 -14 -34 -11 -11 -18 -23 -14 -26 3 -3 -12 -7
-34 -8 -73 -3 170 -16 341 -17 94 -2 179 -6 190 -11 11 -5 18 -9 15 -10 -3 -1
-160 -5 -350 -9 -324 -7 -347 -8 -385 -28 -54 -29 -91 -70 -110 -122 -12 -36
-15 -100 -15 -356 l0 -313 35 -68 c49 -97 47 -118 -8 -66 -25 23 -28 24 -18 5
6 -12 16 -25 21 -28 6 -4 7 -12 3 -18 -12 -20 -14 -47 -3 -47 7 0 7 -8 -1 -22
-16 -30 -13 -346 3 -359 4 -3 9 -34 11 -70 4 -74 15 -108 28 -87 7 10 9 10 9
-2 0 -13 1 -13 10 0 7 11 10 5 11 -25 0 -26 7 -4 19 65 34 202 108 455 180
616 123 273 359 577 610 785 335 277 762 472 1135 518 50 6 101 13 115 15 14
2 135 3 270 1 195 -2 268 -7 355 -23z m-3 -231 c404 -83 736 -256 1036 -537
386 -361 640 -902 656 -1399 3 -66 2 -105 0 -87 -5 32 -29 42 -29 12 0 -7 -5
-15 -11 -17 -7 -2 -10 5 -7 20 3 14 -2 29 -11 36 -9 8 -16 20 -16 28 0 8 -5
11 -10 8 -6 -4 -8 -15 -5 -26 4 -11 2 -19 -5 -19 -8 0 -11 11 -8 30 3 20 0 30
-8 30 -7 0 -17 12 -23 28 l-11 27 4 -27 c2 -16 0 -28 -3 -28 -4 0 -15 48 -25
108 -69 405 -269 801 -551 1086 -87 88 -146 136 -158 130 -7 -4 -9 -4 -5 1 11
12 -43 50 -69 49 -12 -1 -20 3 -17 8 3 4 10 6 15 3 5 -4 9 -2 9 2 0 5 -9 14
-20 20 -16 11 -18 10 -14 -2 9 -23 -8 -18 -54 16 -23 17 -42 27 -42 23 0 -4
-10 2 -23 14 -19 18 -26 19 -37 9 -10 -10 -12 -9 -7 4 3 9 -3 21 -15 28 -23
14 -40 5 -18 -10 12 -8 11 -9 -5 -7 -11 2 -19 11 -19 19 1 11 -8 16 -25 17
-58 3 -79 7 -74 15 2 4 -3 7 -11 7 -8 0 -41 11 -73 24 -66 27 -168 60 -198 62
-63 6 -110 17 -116 26 -4 6 -16 7 -29 3 -12 -4 -20 -3 -17 1 6 11 -4 11 -253
19 -195 7 -260 2 -410 -29 -169 -36 -231 -52 -223 -60 4 -5 -4 -7 -19 -4 -15
3 -25 1 -22 -3 3 -5 2 -9 -3 -10 -4 0 -17 -3 -28 -5 -11 -3 -27 -6 -35 -8 -9
-1 -22 -6 -29 -11 -8 -4 -28 -11 -45 -15 -18 -4 -30 -12 -28 -20 2 -8 -4 -11
-18 -7 -11 3 -18 2 -15 -3 7 -11 -24 -22 -37 -13 -7 3 -8 1 -4 -5 8 -14 -50
-46 -66 -36 -6 4 -8 3 -5 -3 8 -13 -40 -46 -54 -38 -5 4 -8 2 -7 -3 2 -6 -22
-27 -53 -49 -30 -21 -75 -54 -99 -73 -65 -52 -248 -231 -268 -261 -27 -41
-136 -183 -147 -191 -5 -4 -6 -8 -1 -8 5 0 0 -10 -12 -22 -11 -13 -22 -27 -24
-33 -2 -5 -7 -9 -12 -7 -5 2 -6 -5 -2 -14 4 -11 -4 -30 -22 -53 -32 -40 -43
-64 -48 -101 -2 -13 -12 -43 -23 -65 -20 -42 -59 -166 -85 -270 -42 -170 -59
-489 -35 -650 6 -38 12 -86 14 -105 8 -80 54 -290 78 -355 7 -16 10 -38 8 -49
-1 -10 1 -16 7 -13 5 4 15 -16 22 -43 8 -28 18 -50 22 -50 5 0 6 -4 3 -10 -3
-5 -1 -10 4 -10 6 0 11 -9 11 -19 0 -21 63 -133 92 -165 10 -11 18 -26 18 -33
0 -7 5 -13 10 -13 6 0 10 -6 9 -12 -3 -27 1 -39 13 -32 7 4 8 3 4 -4 -8 -13
11 -39 86 -114 31 -31 54 -58 52 -61 -4 -4 112 -112 196 -183 168 -143 471
-296 720 -364 36 -10 58 -19 50 -19 -24 -2 10 -21 37 -21 14 0 21 -5 18 -12
-5 -13 36 -33 119 -58 28 -9 35 -15 25 -21 -11 -7 -11 -9 2 -9 9 0 22 -7 29
-15 7 -9 20 -13 28 -10 20 7 37 -5 21 -16 -9 -6 -2 -9 23 -9 20 0 39 -3 41 -8
10 -15 -243 7 -368 33 -634 128 -1165 540 -1455 1130 -131 267 -197 543 -207
865 -15 501 122 945 411 1328 326 431 835 733 1351 802 50 6 97 13 105 15 8 2
121 2 250 0 186 -3 255 -8 332 -24z m1819 -4 c90 -30 149 -70 191 -130 18 -26
13 -23 -32 17 -98 87 -158 102 -418 106 -97 1 -188 3 -202 5 -14 1 -68 3 -120
4 -63 2 -88 5 -75 11 11 5 153 7 315 6 237 -2 304 -6 341 -19z m-1880 -296
c232 -41 477 -139 667 -267 107 -73 206 -153 198 -162 -3 -2 -21 9 -41 27
-149 130 -430 274 -656 335 -525 143 -1103 38 -1520 -274 -174 -130 -306 -269
-424 -445 -341 -508 -396 -1159 -148 -1735 40 -93 66 -142 128 -246 l17 -29
-21 25 c-76 89 -184 319 -236 499 -47 166 -65 271 -72 423 -15 337 71 691 240
983 136 235 369 478 592 620 197 125 463 221 720 260 128 20 406 13 556 -14z
m-101 -689 c20 -4 -35 -6 -132 -4 -213 5 -329 -12 -480 -73 -466 -186 -751
-689 -674 -1190 24 -155 45 -224 112 -360 19 -38 27 -61 19 -50 -27 33 -81
145 -103 215 -80 247 -78 484 3 728 42 124 86 209 160 307 170 227 409 378
670 424 33 6 71 13 85 15 37 7 300 -2 340 -12z m-62 -72 c158 -20 382 -104
467 -175 22 -18 8 -14 -58 19 -94 48 -233 97 -332 117 -33 7 -130 13 -215 13
-170 1 -258 -15 -402 -75 -74 -30 -225 -125 -249 -156 -12 -16 -12 -16 8 0 25
22 51 14 32 -9 -19 -23 2 -16 22 7 10 11 22 18 28 15 5 -3 17 -3 26 0 13 6 14
9 3 16 -10 7 -8 8 7 7 11 -2 43 9 70 23 210 108 465 135 698 74 134 -36 317
-132 372 -196 19 -23 18 -23 -25 3 -85 51 -198 106 -271 132 -74 25 -133 35
-69 10 96 -36 91 -32 78 -60 -6 -14 -15 -25 -20 -25 -4 0 -8 -4 -8 -10 0 -5 8
-7 18 -4 11 4 8 -1 -8 -15 -14 -11 -19 -21 -12 -21 6 0 12 -9 12 -20 0 -14 -7
-20 -22 -20 -21 0 -20 -2 8 -19 54 -33 46 -40 -17 -14 -157 63 -336 69 -491
16 -209 -72 -385 -253 -454 -468 -36 -111 -43 -284 -16 -405 10 -47 22 -92 26
-101 8 -19 -20 -53 -35 -43 -6 3 -15 1 -22 -4 -7 -6 -26 -9 -44 -7 -22 2 -34
-3 -38 -14 -5 -13 -9 -12 -21 9 l-15 25 7 -25 c9 -34 53 -127 81 -172 33 -54
28 -57 -12 -7 -47 58 -130 227 -151 309 -29 113 -34 340 -10 461 l7 34 -15
-29 c-9 -15 -16 -41 -16 -57 0 -22 -4 -27 -16 -22 -13 5 -15 15 -10 55 9 68
52 201 87 271 16 31 27 57 24 57 -2 0 -20 -30 -39 -68 -130 -259 -142 -604
-29 -887 35 -89 85 -176 127 -225 15 -18 16 -21 3 -10 -11 8 -38 41 -62 74
-169 239 -223 559 -145 861 23 91 90 237 149 323 110 163 284 303 461 371 165
63 344 84 528 61z m-1445 -227 c36 -41 25 -120 -18 -137 -86 -32 -154 66 -90
129 29 30 84 34 108 8z m4088 -373 c29 0 134 -86 167 -135 l32 -48 -1 -146
c-1 -176 -13 -227 -22 -91 -7 105 -14 140 -30 140 -16 0 -55 47 -75 93 -40 89
-151 160 -272 174 l-65 8 45 5 c37 4 95 4 221 0z m-2411 -118 c0 -4 -57 -59
-127 -122 -71 -63 -168 -153 -218 -200 -182 -173 -393 -363 -382 -344 3 6 0
30 -8 55 l-15 44 2 -63 c1 -36 -3 -67 -10 -74 -9 -9 -12 73 -12 350 l0 362
385 0 c212 0 385 -3 385 -8z m2450 -716 c48 -25 118 -93 141 -138 17 -33 19
-60 19 -263 0 -148 -3 -224 -10 -220 -5 3 -10 -2 -10 -12 0 -11 -7 -28 -16
-39 -13 -16 -15 -16 -10 -1 3 9 1 17 -5 17 -7 0 -9 -10 -5 -25 5 -21 3 -25
-16 -25 -13 0 -30 -5 -38 -10 -13 -9 -13 -11 0 -20 13 -8 12 -10 -2 -10 -22 0
-24 38 -3 46 8 4 13 10 10 14 -3 5 2 16 12 25 12 13 13 19 4 24 -13 8 -19 67
-8 78 4 3 7 -8 7 -25 0 -18 4 -32 9 -32 12 0 2 73 -12 82 -9 6 -9 8 1 8 8 0
12 16 12 45 0 25 -4 45 -10 45 -5 0 -10 5 -10 11 0 5 4 8 8 5 8 -5 -1 85 -16
149 -13 60 -41 113 -81 153 -19 21 -34 41 -33 45 2 5 -2 6 -7 3 -5 -3 -15 2
-22 11 -12 14 -12 16 1 9 8 -4 4 2 -9 13 -13 12 -18 21 -11 21 7 0 7 5 -3 14
-8 8 -36 17 -63 19 -27 2 -6 3 46 3 69 -2 104 -7 130 -20z m-5055 -536 c-11
-18 -108 -106 -229 -207 -118 -99 -119 -101 -120 -144 -1 -24 -3 -235 -5 -469
-2 -238 -6 -410 -11 -390 -4 19 -11 234 -15 477 l-6 441 148 119 c144 116 232
183 240 183 2 0 1 -4 -2 -10z m20 -250 c-3 -5 1 -20 9 -32 9 -12 16 -29 16
-36 0 -7 13 -33 29 -56 17 -24 33 -55 37 -69 7 -31 10 -32 44 -12 50 29 51 14
1 -31 l-51 -46 0 -323 0 -323 36 -37 c28 -30 33 -39 23 -51 -6 -8 -14 -12 -16
-10 -3 3 -29 -15 -59 -40 -30 -24 -59 -44 -65 -44 -11 0 -70 -40 -81 -55 -4
-5 -5 -16 -3 -24 10 -27 -23 9 -48 52 -55 93 -57 117 -57 563 0 229 4 424 9
437 5 13 46 52 91 86 80 60 97 70 85 51z"/>
</g>
</svg>
